<svg version="1" xmlns="http://www.w3.org/2000/svg" width="213.333" height="213.333" viewBox="0 0 160.000000 160.000000"><path d="M71.8 3.1c-3.7.4-8.2 1.4-9.9 2.3-1.8.9-3.8 1.6-4.4 1.6-.7 0-2.3.9-3.7 1.9-1.3 1.1-4.9 2.8-8 3.9-3.1 1.1-7.3 3.1-9.3 4.5-2.1 1.5-4.2 2.4-4.8 2-2.3-1.4-14.8 13.7-20.1 24.4C4.8 57.3.9 78.7 4.3 84.1c.8 1.3 1.8 3.5 2.2 4.8.8 2.5 4.2 6 5.9 6.1.7 0 5.6 4.6 5.6 5.3 0 .1-.4 1.7-1 3.6-.6 2.2-.5 4.9.2 8.3.9 3.9.9 5.1-.1 5.7-1 .7-.8 2.1.9 7 3.3 8.9 12.5 17.4 26.2 24 13.9 6.6 21.5 8.5 35.8 8.4 14.4 0 22.4-1.8 35.5-8.2 26.2-12.8 41.7-38.5 41.7-69.1 0-18.6-5.9-35.8-16.9-49.5C124.5 11 97.5.2 71.8 3.1zm8.1 9.5c-1.2 1.5-1.1 1.6 1.1.9l2.5-.7-2.2 2.4c-1.8 1.9-2 2.7-1.1 3.6.9.9.9 1.2 0 1.2-.7 0-1.2.6-1.2 1.3 0 .7-1.2 1.8-2.7 2.4-2.6 1.1-2.5 1.1 1.6.9 2.7-.2 4.7-.9 5.2-1.9.5-.9 1.6-1.4 2.4-1 1.1.3 1.3.1.9-1-.3-.9-1.2-1.8-2-2.1-2.1-.8-1.7-2.2 1.2-4.1 2.5-1.6 2.6-1.6 1.9.4-.4 1.4-.2 2.1.7 2.1 1.1 0 1.1.2 0 .9s-1.1.9.2 1.4c.8.3 1.8.2 2.1-.3.3-.5 1.2-.7 2-.3.8.3 1.5 0 1.5-.6s-.4-1.1-1-1.1c-.5 0-1-.5-1-1.2 0-.6.7-.4 1.8.5 2.2 2 3.8 2.2 4.8.5.4-.6.3-.8-.4-.4-.6.3-1.3.2-1.7-.4-.3-.5-.2-1 .4-1 .5 0 1.7-.3 2.5-.6 1.2-.5 1.5-.2 1 1-.4 1.1-.1 1.6 1.3 1.6 3.6 0 12.8 3.8 13.1 5.5.3 1.3.7 1.4 1.8.4 1.1-.9 2.1-.6 1.2.3-.2.2.7 1.7 2 3.5 1.2 1.7 2.2 3.5 2.2 4 0 .4.9 1.4 2.1 2.1 1.1.7 1.8 1.9 1.6 2.7-.3.7.3 2.1 1.3 3 1.8 1.6 1.8 1.6 1.4-.7-.2-1.3.4-.6 1.5 1.7 2.3 4.7 2.7 9 .9 7.9-.7-.4-.5.1.4 1.2 1.1 1.3 1.4 2.4.8 3.4-.5.8-.6 1.8-.4 2.2.3.4-.1.8-.8.8-.7.1.1 1.2 1.7 2.5 2.8 2.4 2.9 2.5.8 2.5-1.3 0-2.3-.5-2.3-1.1 0-.6-.8-.8-1.9-.4-1.2.3-3-.4-4.9-2-4.1-3.4-5.1-1.4-1.3 2.6 2.1 2.1 3.7 3 5 2.6 1.2-.3 2.7.3 3.7 1.4 2.8 3.1.5 6.3-6.8 9.8-7.5 3.7-8.5 3.8-9.4.8-1.3-4.1-10.8-16.7-12.7-16.7-.5 0 .1 1.5 1.2 3.2 1.2 1.8 3.1 5.2 4.3 7.6 1.1 2.3 3.3 5.2 4.9 6.3 1.6 1.1 2.9 2.7 2.9 3.6 0 1.2.9 1.4 5.1.8l5.1-.7-1.7 3.3c-1 1.9-4.8 6.4-8.6 10.1-6.4 6-6.9 6.9-6.4 9.8.8 4.4.8 4.2.6 7.2-.1 2-1.1 3.2-4.1 4.9-2.8 1.6-4 2.9-4 4.6 0 3.5-9.9 13.3-13.6 13.3-1.6 0-3.9.3-5.1.6-1.8.5-2.5 0-3.7-2.7-.9-1.9-2-4.1-2.6-4.9-.5-.8-1.6-3.1-2.5-5-.8-1.9-2-4.2-2.6-5.1-.9-1.2-.9-2.3.4-4.7 2-4.1.8-8.8-3.2-12.6-2.5-2.4-2.8-3.2-2.1-5.7 1-3.5.3-3.8-1-.4-1 2.7-5.8 4.5-6.9 2.6-.5-.7-3.7-1.4-7.2-1.6-5.8-.3-8.7-1.2-15.9-4.9-3.4-1.8-7-9.1-7-14.3 0-6.4 1.9-14.1 4.3-17.1 1.2-1.5 2.2-3.6 2.2-4.7 0-2.2 3.5-5.5 5.9-5.5.9 0 1.6-.6 1.6-1.3 0-.9.3-.8.9.2.6 1 1.1.4 1.6-2 .9-4.1 1.9-4.9 6.8-4.9 2.6 0 3.7-.4 3.7-1.5 0-.9-.6-1.8-1.4-2.1-1.8-.7-1.3-4 1-6.5 1-1.1 1.3-1.9.8-1.9s-1.7.9-2.7 2c-1.8 2.1-4.7 2.7-4.7 1 0-.6 1.6-2 3.5-3.1 1.9-1.2 3.5-2.5 3.5-3s.9-.9 2.1-.9c1.3 0 1.9.5 1.6 1.3-.2.7.3 2.3 1.3 3.5 1.7 2.1 2 2.1 5.4.7 2-.8 3.5-2 3.3-2.6-.1-.6.4-1.4 1.1-1.6.7-.3 1.2.3 1.2 1.4.1 1.7.1 1.7 1.1 0 1.4-2.4.2-3.8-2.7-3.1-1.9.5-2.4.2-2.4-1.4 0-1.3 1-2.4 3-3.1 1.7-.6 4.3-1.9 5.7-3.1 3.1-2.4 5.1-2.7 3.2-.4zM53.5 15c-.3.5-1.7 1-3.1 1-1.4 0-2.2-.4-1.9-1 .3-.6 1.7-1 3.1-1 1.4 0 2.2.4 1.9 1zM135 53.9c0 .5-.6 1.3-1.3 1.9-1 .8-1.3.6-1.3-.9 0-1 .6-1.9 1.3-1.9.7 0 1.3.4 1.3.9zm-17.7 62.6c-.3.9-.8 1.4-1 1.1-.3-.3-.2-.9.2-1.5.9-1.6 1.5-1.3.8.4z"/><path d="M94.1 36.6c-.6 1.5-.9 2.9-.6 3.2.9.9 16.5 1.1 16.5.1 0-.5-1.3-1.5-3-2.4-1.6-.9-3-2-3-2.5 0-1.4-2.8-1.2-3.3.2-.4 1-.7 1-1.8 0-2-1.9-3.5-1.5-4.8 1.4zM115.3 35.6c-.3.8.4 2.5 1.6 3.8 1.1 1.2 2.1 3.2 2.1 4.3 0 2.1 1.8 3.3 4.7 3.3 1.1 0 1.3-.5.8-1.8-.4-.9-.7-2.4-.7-3.3 0-.9-1.1-2.2-2.4-2.8-1.9-.8-2.4-1.6-1.9-3.1.5-1.6.2-2-1.5-2-1.1 0-2.3.7-2.7 1.6zM74.2 37.3c.7.7 2.6 1.8 4.1 2.5l2.8 1.2-2.1 2.2c-1.1 1.2-2 2.5-2 3 0 .4-1 .4-2.2-.1-2.7-1-2.4-2.7.4-2.3 2.3.4 2.4-1.5 0-2.2-1-.4-2.8-1.5-4-2.6-1.8-1.7-2.6-1.9-4.3-1-1.1.7-2.7.9-3.4.6-.7-.2-1.6.2-1.9 1-.4 1 .2 1.4 1.9 1.4 1.4 0 2.5.6 2.5 1.2.1.7.7-.1 1.4-1.7 1.2-2.5 1.5-2.7 2.1-1.3 1.3 3.2-.2 4.7-5.2 5.1l-4.8.3 5.8.2c5.4.2 5.7.3 5.7 2.7 0 1.6.6 2.5 1.5 2.5s3.4.9 5.6 1.9c3.2 1.6 4.1 1.7 4.5.6.8-2 3.3-2.6 5.6-1.4 1.2.6 4.7 1.3 7.9 1.5 5 .4 6 .1 6.9-1.5 2-3.8 1.3-4.9-3.2-4.6-4.7.3-8.8-1.6-8.8-4.1 0-.9-.7-1.4-1.7-1.2-1 .2-1.8 1.2-1.8 2.2 0 3.2-2.3 2.9-4.4-.4-1-1.8-3.3-4.1-5-5.1-3.6-2.2-5.9-2.5-3.9-.6zm.3 10.7c.3.5-.1 1-.9 1-.9 0-1.6-.5-1.6-1 0-.6.4-1 .9-1 .6 0 1.3.4 1.6 1zM90 48c0 .5-.2 1-.4 1-.3 0-.8-.5-1.1-1-.3-.6-.1-1 .4-1 .6 0 1.1.4 1.1 1zM32.2 69c0 1.4.2 1.9.5 1.2.2-.6.2-1.8 0-2.5-.3-.6-.5-.1-.5 1.3zM100 93.6c0 1.7 2.2 1.4 2.8-.4.2-.7-.3-1.2-1.2-1.2-.9 0-1.6.7-1.6 1.6zM96 98.9c0 .6.4 1.3 1 1.6.6.3.7-.1.4-.9-.7-1.8-1.4-2.1-1.4-.7z"/></svg>